<?xml version="1.0" encoding="UTF-8"?>
<svg id="Layer_1" data-name="Layer 1" xmlns="http://www.w3.org/2000/svg" viewBox="0 0 544.65 366.4">
  <defs>
    <style>
      .cls-1 {
        fill: #66cce7;
      }

      .cls-1, .cls-2, .cls-3, .cls-4 {
        stroke-width: 0px;
      }

      .cls-2 {
        fill: #9fcf79;
      }

      .cls-3 {
        fill: #fff;
      }

      .cls-4 {
        fill: #64bf7a;
      }
    </style>
  </defs>
  <path class="cls-4" d="M44.36,246.21l58.3-117.95,40.19,42.72L288.11,0l48.66,69.51-50.9,80.72-24.22-27.69-64.24,118.4c-17.69,6.81-45.67,15.14-80.76,15.64-30.41.44-55.35-5.15-72.28-10.37Z"/>
  <path class="cls-3" d="M226.22,87.68l56.51-58.75c.09-.1.7-.77,1.71-.76.97.01,1.56.65,1.65.76,11.06,14.05,22.12,28.1,33.19,42.16v12.33l-17.94-18.39-1.79,7.4-18.28-13.68-20.69,12.5-2.02-4.88-32.35,21.3Z"/>
  <path class="cls-2" d="M230.65,226.64l35.32-64.75,22.7,26.07,85.55-135.49,115.93,180.06c-18.05-9.7-40.31-19.19-66.6-25.56-86.51-20.96-160.46,5.53-192.9,19.68Z"/>
  <path class="cls-3" d="M330.49,133.87l42.16-49.33c.11-.14.86-1.1,2.17-1.18,1.53-.09,2.46,1.08,2.54,1.18,11.66,13.08,23.32,26.16,34.98,39.24v11.66l-17.94-16.37-1.35,7.4-19.73-12.11-19.28,13.94-2.55-4.5-17.32,13.12-3.67.34v-3.39Z"/>
  <path class="cls-1" d="M.3,254.62c.39-.23,1.07.25,1.44.51,1.2.85,6.34,3.35,16.61,8.35,2.5,1.22,5.67,2.38,12,4.71,0,0,4.74,1.74,9.31,3.25,3.09,1.02,30.23,9.67,58.53,11.88,34.94,2.73,65.62-4.84,80.33-8.58,47.55-12.09,50.09-24.67,99.65-37,8.93-2.22,32.71-7.75,63.99-9.58,19.09-1.12,47.08-2.56,81.73,5.38,20.69,4.74,35.25,10.88,40.36,13.12,9.5,4.16,24.06,10.65,40.28,23.38,6.79,5.33,16.46,13.02,25.98,25.73,7.33,9.78,14.55,22.5,14.13,22.79-.09.06-.56-.49-.76-.71-4.39-5.08-16.16-13.51-17.63-14.56-29.51-21.13-73.77-25-73.77-25-28.19-2.46-49.38,2.78-69.96,8.07-7.06,1.81-23.45,6.31-75.34,30.27-59.99,27.7-64.01,33.67-91.26,41.03-18.43,4.98-41.88,11.08-72.65,7.85-40.5-4.25-68.63-22.02-78.93-28.7-2.92-1.89-22.09-14.47-36.33-31.39-7.46-8.87-14.11-19.58-14.46-20.15-2.28-3.69-4.06-6.88-5.61-9.89-4.04-7.85-9.24-19.78-7.62-20.74Z"/>
</svg>